<?xml version="1.0" standalone="no"?>
<!DOCTYPE svg PUBLIC "-//W3C//DTD SVG 20010904//EN"
 "http://www.w3.org/TR/2001/REC-SVG-20010904/DTD/svg10.dtd">
<svg version="1.0" xmlns="http://www.w3.org/2000/svg"
 width="556.000000pt" height="556.000000pt" viewBox="0 0 556.000000 556.000000"
 preserveAspectRatio="xMidYMid meet">
<metadata>
Created by potrace 1.11, written by Peter Selinger 2001-2013
</metadata>
<g transform="translate(0.000000,556.000000) scale(0.100000,-0.100000)"
fill="#000000" stroke="none">
<path d="M3703 5253 c-44 -15 -90 -55 -103 -88 -4 -12 -7 -35 -5 -53 2 -30 -3
-36 -31 -31 -3 1 -19 -12 -35 -27 -31 -30 -39 -80 -17 -102 9 -9 9 -12 -3 -12
-24 0 -78 -59 -88 -96 -5 -19 -16 -41 -25 -50 -9 -8 -16 -24 -16 -34 0 -16 -4
-17 -32 -9 -45 14 -69 20 -98 25 -14 2 -43 7 -65 10 -127 21 -282 -3 -336 -52
-14 -13 -19 -13 -26 -2 -12 19 -64 46 -120 63 -48 15 -219 15 -273 0 -14 -4
-34 -8 -45 -10 -11 -2 -21 -4 -22 -5 -2 -2 -7 -4 -13 -5 -5 -1 -11 -3 -12 -5
-2 -1 -11 -3 -21 -5 -30 -6 -63 35 -66 81 -1 7 -18 29 -38 50 -21 20 -38 40
-38 43 -2 18 -48 90 -73 113 -17 16 -35 47 -42 75 -31 107 -115 147 -184 85
-14 -12 -32 -18 -51 -15 -46 5 -48 5 -90 -1 -82 -11 -124 -31 -155 -71 -14
-18 -39 -38 -57 -44 -17 -7 -54 -32 -82 -57 -27 -24 -53 -44 -58 -43 -15 4
-58 -19 -89 -47 -103 -95 -129 -243 -63 -361 18 -32 19 -44 5 -188 -7 -69 34
-131 80 -123 18 3 30 -13 38 -52 13 -65 105 -124 169 -110 24 5 37 2 53 -12
12 -11 28 -20 35 -22 35 -5 39 -17 18 -46 -34 -45 -99 -74 -156 -67 -43 4 -46
4 -28 -9 28 -21 104 -17 148 6 l38 20 -6 -37 c-3 -21 -8 -51 -11 -68 -11 -69
-4 -369 11 -485 8 -67 10 -74 18 -87 5 -7 6 -13 2 -13 -3 0 1 -16 9 -35 15
-34 14 -35 -9 -41 -14 -3 -22 -10 -19 -15 3 -5 0 -9 -6 -9 -6 0 -20 -21 -32
-47 -16 -35 -20 -66 -20 -127 1 -45 3 -88 5 -96 2 -8 7 -32 12 -53 4 -20 11
-40 16 -43 5 -3 7 -10 4 -15 -4 -5 -1 -9 4 -9 6 0 11 -3 10 -7 -2 -16 14 -53
22 -53 5 0 9 -5 9 -11 0 -6 8 -23 19 -37 11 -17 21 -54 25 -97 8 -93 18 -130
49 -191 41 -82 153 -184 200 -184 26 0 27 37 2 50 -35 19 -81 88 -99 149 -9
30 -16 56 -16 58 0 6 44 -8 50 -16 3 -3 27 -7 53 -7 l49 -1 26 -59 c42 -96
108 -189 191 -272 88 -88 130 -122 150 -122 8 0 11 -3 8 -6 -7 -8 60 -46 181
-104 79 -38 83 -42 78 -68 -4 -15 -8 -49 -11 -77 -2 -27 -5 -50 -6 -50 -1 0
-5 -32 -10 -82 -3 -26 -10 -34 -39 -46 -19 -7 -38 -13 -41 -13 -3 1 -14 -5
-23 -13 -9 -8 -37 -15 -61 -16 -24 -2 -48 -6 -55 -10 -6 -3 -25 -8 -43 -10
-18 -1 -51 -6 -74 -9 -23 -4 -55 -9 -70 -11 -40 -6 -125 -30 -148 -42 -11 -6
-36 -13 -56 -17 -54 -10 -113 -54 -164 -122 -37 -49 -93 -148 -101 -176 -1 -5
-3 -10 -4 -13 -1 -3 -3 -8 -5 -12 -1 -5 -4 -15 -8 -23 -5 -13 -41 -142 -63
-225 -4 -16 -8 -32 -9 -35 -9 -34 -17 -75 -20 -111 -5 -47 -8 -65 -18 -89 -3
-8 -13 -42 -22 -75 -9 -33 -22 -66 -27 -72 -6 -7 -8 -13 -4 -13 4 0 0 -13 -9
-30 -8 -16 -16 -33 -16 -37 -2 -14 -11 -37 -80 -206 -38 -92 -69 -170 -69
-173 0 -2 113 -3 251 -2 l251 3 70 137 c50 97 74 135 84 131 8 -3 14 -10 14
-15 0 -12 78 -88 91 -88 6 0 8 -4 5 -9 -3 -5 7 -14 23 -21 29 -12 65 -57 89
-112 9 -22 18 -28 42 -28 37 0 37 11 1 77 -25 45 -26 53 -12 58 8 3 17 1 19
-4 2 -6 9 -8 15 -5 8 5 8 2 0 -7 -7 -7 -13 -18 -13 -24 0 -5 5 -3 10 5 8 13
12 12 27 -4 10 -10 13 -16 6 -12 -6 3 -14 2 -18 -4 -3 -5 3 -10 14 -10 12 0
21 -5 21 -11 0 -5 6 -7 13 -3 9 5 9 4 0 -6 -9 -10 -7 -17 10 -31 21 -17 56
-18 538 -19 l516 0 16 40 c8 22 17 44 18 48 3 12 63 52 73 49 5 -2 11 -14 13
-28 2 -13 6 -37 9 -54 3 -16 6 -36 6 -42 1 -10 55 -13 236 -13 l234 0 -6 63
c-3 34 -8 80 -11 102 -3 22 -8 76 -10 120 -2 44 -4 81 -5 83 -7 9 -4 150 3
159 6 8 6 13 1 13 -5 0 -9 22 -9 50 0 27 2 50 5 50 7 0 4 324 -4 380 -17 128
-46 217 -93 278 -27 36 -94 82 -119 82 -9 0 -45 13 -81 30 -35 16 -75 30 -87
30 -12 0 -26 3 -30 8 -4 4 -15 7 -24 8 -9 0 -30 3 -47 7 -16 4 -40 9 -52 11
-45 9 -140 39 -213 68 -59 24 -85 29 -120 25 -38 -5 -46 -3 -47 11 0 9 -4 42
-8 72 -4 30 -8 72 -9 92 -1 21 -5 40 -8 43 -12 12 6 57 26 65 11 4 39 16 61
25 22 10 41 16 41 14 1 -2 10 3 20 12 21 18 82 51 87 47 1 -2 9 3 17 10 46 39
64 52 81 57 11 4 17 10 14 15 -3 5 3 11 12 14 24 8 154 141 146 150 -3 3 -2 6
4 6 14 0 92 125 119 190 1 3 5 15 9 27 4 13 10 24 14 24 3 1 16 3 27 4 12 1
32 5 45 8 13 3 26 5 29 4 3 -1 17 8 30 21 33 30 38 11 15 -58 -15 -47 -47 -87
-87 -114 -62 -41 -29 -82 39 -48 101 52 179 159 186 257 2 25 6 47 8 49 2 3 3
36 3 75 -1 39 2 71 7 71 5 0 19 21 31 48 12 26 27 50 32 54 6 4 7 8 1 8 -5 0
-4 5 2 11 6 6 9 18 6 25 -3 8 -1 14 3 14 5 0 10 15 12 33 6 79 7 173 3 182 -3
6 -6 17 -8 25 -5 36 -52 100 -73 100 -13 0 -14 -4 14 76 58 165 66 369 25 579
-6 27 -12 61 -15 74 -3 13 -9 32 -15 43 -5 10 -7 18 -5 18 3 0 -1 18 -9 40
-12 35 -12 40 0 40 8 0 16 -1 18 -2 3 -3 69 34 89 51 10 7 32 15 50 17 45 6
119 53 143 92 17 27 26 31 62 32 56 0 79 31 64 85 -8 30 -6 43 9 73 10 20 20
44 22 52 2 8 7 18 11 21 26 19 29 152 5 232 -6 23 -12 44 -13 47 -9 32 -37 73
-76 111 -43 40 -47 49 -43 79 7 40 -18 109 -50 139 -41 39 -93 51 -145 35 -25
-7 -48 -10 -51 -6 -18 25 -104 60 -165 66 -11 2 -30 8 -41 14 -28 15 -129 8
-175 -12 -20 -8 -51 -27 -68 -42 -19 -16 -31 -21 -31 -12 0 14 43 68 55 68 4
0 21 6 38 14 18 8 41 16 52 18 17 3 16 5 -5 9 -14 3 -44 -1 -67 -8z m-1706
-65 c31 -34 55 -86 43 -93 -6 -3 -10 -1 -10 4 0 6 -6 11 -13 11 -7 0 -22 8
-33 18 -10 10 -36 26 -57 36 -31 14 -36 20 -26 32 18 22 72 17 96 -8z m-669
-865 c22 -18 22 -18 3 -30 -32 -20 -62 12 -67 72 l-4 50 23 -37 c12 -20 33
-45 45 -55z m3092 13 c0 -32 -13 -46 -41 -46 -53 0 -26 56 29 59 6 1 12 -5 12
-13z m-1800 -2834 c0 -11 50 -39 105 -58 57 -19 177 -24 249 -11 52 9 119 39
144 63 18 18 56 18 92 -1 43 -22 201 -73 250 -80 47 -7 185 -46 197 -57 7 -6
13 -7 13 -4 0 4 14 -1 30 -11 34 -20 37 -28 14 -37 -8 -3 -12 -10 -9 -16 3 -5
2 -10 -2 -10 -5 0 -14 -14 -20 -30 -9 -23 -8 -28 0 -23 9 5 9 3 1 -8 -5 -8
-16 -27 -22 -42 -10 -23 -10 -27 0 -21 10 6 10 5 1 -7 -6 -8 -14 -36 -18 -64
-4 -27 -9 -61 -11 -75 -9 -55 -1 -281 14 -366 10 -62 6 -159 -9 -197 -7 -15
-14 -26 -16 -23 -2 2 -30 -6 -61 -19 -95 -38 -203 -52 -226 -29 -9 8 -16 12
-16 8 0 -3 -7 -1 -15 6 -12 10 -15 10 -15 -1 0 -9 -3 -10 -8 -4 -4 6 -16 12
-27 13 -11 2 -22 7 -25 10 -3 4 -12 9 -20 10 -8 2 -24 6 -35 9 -43 10 -404 22
-420 14 -5 -3 -19 -7 -30 -8 -11 -2 -51 -13 -90 -25 -92 -28 -105 -30 -105
-16 0 6 -3 8 -6 5 -4 -3 -16 -2 -27 4 -15 8 -18 8 -12 -1 6 -9 3 -9 -12 -1
-14 7 -24 7 -33 -2 -10 -10 -11 -9 -5 2 6 11 4 13 -8 8 -10 -3 -17 -2 -17 3 0
5 -12 5 -27 1 -34 -9 -105 -4 -113 8 -3 5 -19 8 -36 8 -18 -1 -39 7 -54 21
-21 19 -46 27 -72 23 -5 0 -7 4 -5 11 3 14 -55 17 -66 3 -13 -16 0 145 15 195
8 25 14 66 13 93 0 26 5 47 10 47 6 0 2 5 -7 11 -10 5 -28 32 -40 59 -22 49
-41 66 -59 54 -15 -9 -10 -41 14 -102 22 -52 26 -99 14 -142 -6 -24 -21 -94
-22 -105 0 -5 -8 -9 -17 -7 -13 2 -194 100 -272 148 -16 10 -16 17 14 130 69
264 121 370 215 434 56 39 72 39 73 -2 0 -17 4 -34 9 -37 4 -3 9 -13 10 -21 1
-8 5 -26 8 -40 4 -14 10 -42 12 -62 3 -21 8 -38 12 -38 6 0 7 -8 13 -132 1
-42 6 -74 11 -71 11 7 8 -12 -4 -24 -11 -11 -5 -33 9 -33 23 0 9 252 -16 321
-5 13 -7 29 -5 36 2 6 -1 14 -6 18 -6 3 -11 17 -11 30 0 13 -5 27 -10 30 -6 4
-8 10 -5 14 2 5 -2 17 -10 27 -12 16 -11 21 2 37 9 9 24 17 33 17 9 0 20 4 26
8 14 13 111 40 169 46 61 8 147 21 195 31 14 3 37 7 52 10 15 3 42 14 60 24
34 20 78 27 78 13z m1194 -234 c11 -10 27 -18 37 -18 21 0 55 -76 75 -170 13
-57 19 -226 15 -402 l-1 -47 -57 -16 c-62 -18 -78 -22 -135 -31 -36 -6 -38 -5
-39 22 0 16 -2 43 -5 59 -12 80 -10 96 17 165 29 76 29 100 -2 100 -17 0 -46
-36 -41 -52 1 -3 -5 -11 -13 -18 -12 -10 -14 -2 -10 52 5 77 12 132 20 178 4
19 8 44 10 55 1 11 4 21 5 23 1 1 3 5 4 10 9 34 29 99 37 119 9 23 9 23 36 6
16 -10 37 -26 47 -35z"/>
<path d="M2546 1422 c26 -25 88 -65 104 -67 3 0 10 -3 15 -7 48 -30 250 -47
330 -27 56 14 145 50 145 58 0 4 10 13 23 20 13 7 29 22 36 34 14 21 11 20
-66 -43 -6 -5 -24 -12 -40 -16 -15 -4 -34 -12 -42 -18 -9 -7 -66 -10 -160 -9
-145 1 -170 4 -203 17 -9 4 -22 9 -30 10 -25 5 -53 19 -98 49 l-45 29 31 -30z"/>
</g>
</svg>
